<?xml version="1.0" encoding="utf-8"?>
<!-- Svg Vector Icons : http://www.onlinewebfonts.com/icon -->
<!DOCTYPE svg PUBLIC "-//W3C//DTD SVG 1.1//EN" "http://www.w3.org/Graphics/SVG/1.1/DTD/svg11.dtd">
<svg version="1.1" xmlns="http://www.w3.org/2000/svg" xmlns:xlink="http://www.w3.org/1999/xlink" x="0px" y="0px" viewBox="0 0 1000 1000" enable-background="new 0 0 1000 1000" xml:space="preserve">
<metadata> Svg Vector Icons : http://www.onlinewebfonts.com/icon </metadata>
<g><path style="fill:#A9B7B7;" d="M898.1,10H224.4c-50.7,0-91.9,41.1-91.9,91.9v61.2h-30.6C51.1,163.1,10,204.2,10,255v612.5C10,935.1,64.8,990,132.5,990h735c67.7,0,122.5-54.9,122.5-122.5V101.9C990,51.1,948.9,10,898.1,10z M928.7,867.5c0,33.8-27.4,61.2-61.2,61.2h-735c-33.8,0-61.2-27.5-61.2-61.2V255c0-16.9,13.7-30.6,30.6-30.6h30.6v612.5c0,16.9,13.7,30.6,30.6,30.6c16.9,0,30.6-13.7,30.6-30.6v-735c0-16.9,13.7-30.6,30.6-30.6h673.7c16.9,0,30.6,13.7,30.6,30.6V867.5z"/><path style="fill:#A9B7B7;" d="M607.2,408.3h245c8.5,0,15.3-6.9,15.3-15.3c0-8.4-6.9-15.3-15.3-15.3h-245c-8.4,0-15.3,6.9-15.3,15.3C591.8,401.4,598.7,408.3,607.2,408.3z"/><path style="fill:#A9B7B7;" d="M607.2,316.4h245c8.5,0,15.3-6.9,15.3-15.3c0-8.4-6.9-15.3-15.3-15.3h-245c-8.4,0-15.3,6.9-15.3,15.3C591.8,309.5,598.7,316.4,607.2,316.4z"/><path style="fill:#A9B7B7;" d="M607.2,224.5h245c8.5,0,15.3-6.9,15.3-15.3s-6.9-15.3-15.3-15.3h-245c-8.4,0-15.3,6.9-15.3,15.3S598.7,224.5,607.2,224.5z"/><path style="fill:#A9B7B7;" d="M515.3,837h-245c-8.4,0-15.3,6.9-15.3,15.3c0,8.5,6.9,15.3,15.3,15.3h245c8.5,0,15.3-6.8,15.3-15.3C530.6,843.9,523.8,837,515.3,837z"/><path style="fill:#A9B7B7;" d="M515.3,745.1h-245c-8.4,0-15.3,6.9-15.3,15.3c0,8.5,6.9,15.3,15.3,15.3h245c8.5,0,15.3-6.8,15.3-15.3C530.6,752,523.8,745.1,515.3,745.1z"/><path style="fill:#A9B7B7;" d="M515.3,653.2h-245c-8.4,0-15.3,6.9-15.3,15.3c0,8.5,6.9,15.3,15.3,15.3h245c8.5,0,15.3-6.8,15.3-15.3C530.6,660.1,523.8,653.2,515.3,653.2z"/><path style="fill:#A9B7B7;" d="M852.2,837h-245c-8.5,0-15.3,6.9-15.3,15.3c0,8.5,6.9,15.3,15.3,15.3h245c8.5,0,15.3-6.8,15.3-15.3C867.5,843.9,860.6,837,852.2,837z"/><path style="fill:#A9B7B7;" d="M852.2,745.1h-245c-8.5,0-15.3,6.9-15.3,15.3c0,8.5,6.9,15.3,15.3,15.3h245c8.5,0,15.3-6.8,15.3-15.3C867.5,752,860.6,745.1,852.2,745.1z"/><path style="fill:#A9B7B7;" d="M852.2,653.2h-245c-8.5,0-15.3,6.9-15.3,15.3c0,8.5,6.9,15.3,15.3,15.3h245c8.5,0,15.3-6.8,15.3-15.3C867.5,660.1,860.6,653.2,852.2,653.2z"/><path style="fill:#A9B7B7;" d="M852.2,469.5H270.3c-8.4,0-15.3,6.9-15.3,15.3c0,8.5,6.9,15.3,15.3,15.3h581.9c8.5,0,15.3-6.9,15.3-15.3C867.5,476.4,860.6,469.5,852.2,469.5z"/><path style="fill:#A9B7B7;" d="M852.2,561.4H270.3c-8.4,0-15.3,6.9-15.3,15.3c0,8.5,6.9,15.3,15.3,15.3h581.9c8.5,0,15.3-6.8,15.3-15.3C867.5,568.2,860.6,561.4,852.2,561.4z"/><path style="fill:#A9B7B7;" d="M285.6,408.1H500c16.9,0,30.6-13.7,30.6-30.6V163.3c0-16.9-13.7-30.6-30.6-30.6H285.6c-16.9,0-30.6,13.7-30.6,30.6v214.2C255,394.4,268.7,408.1,285.6,408.1z M316.3,193.7h153.1v153.1H316.3V193.7z"/></g>
</svg>